<svg width="168" height="43" viewBox="0 0 168 43" fill="none" xmlns="http://www.w3.org/2000/svg">
<path d="M22.0601 41.79C22.5455 41.7379 22.8581 41.6337 22.9966 41.4685C23.1351 41.3033 23.2036 40.9208 23.2036 40.3151V35.6747C23.2036 35.264 23.137 34.9941 23.0037 34.8651C22.8681 34.7446 22.564 34.6732 22.0872 34.6508V34.4365H24.4128L27.1253 40.135L29.765 34.4365H32.1063V34.6508C31.6709 34.6776 31.3925 34.7565 31.2626 34.8815C31.1327 35.0065 31.0713 35.2714 31.0713 35.6747V40.7556C31.0713 41.1723 31.1355 41.4373 31.2626 41.5593C31.3897 41.6813 31.6709 41.7513 32.1063 41.79V41.9983H28.7999V41.79C29.281 41.7513 29.5737 41.6694 29.6936 41.5429C29.8135 41.4164 29.8707 41.1054 29.8707 40.6232V35.4872L26.8498 41.9939H26.687L23.7233 35.7551V40.3107C23.7233 40.9357 23.816 41.3435 24.0088 41.5355C24.1287 41.656 24.4057 41.7409 24.8311 41.7855V41.9939H22.0601V41.79Z" fill="#004A8B"/>
<path d="M32.5356 41.79C32.9639 41.7453 33.2495 41.6694 33.3822 41.5623C33.515 41.4551 33.5721 41.1902 33.5721 40.7616V35.6762C33.5721 35.2714 33.5107 35.0065 33.3837 34.8815C33.2566 34.7565 32.9768 34.6776 32.5356 34.6508V34.4365H38.7973L38.8387 36.0736H38.5374C38.4375 35.5706 38.2904 35.2461 38.0877 35.0973C37.885 34.9485 37.4439 34.8726 36.7557 34.8726H35.1482C34.9769 34.8726 34.8713 34.9038 34.8313 34.9544C34.7819 35.0448 34.7591 35.1483 34.7656 35.2521V37.8059H36.5873C37.0898 37.8059 37.411 37.7315 37.5481 37.5886C37.6851 37.4458 37.7979 37.1511 37.8821 36.7091H38.1605V39.3567H37.8821C37.7936 38.9102 37.6837 38.62 37.5438 38.4727C37.4039 38.3253 37.0869 38.2584 36.5873 38.2584H34.7656V41.086C34.7656 41.3137 34.8413 41.4507 34.9912 41.4879C35.1411 41.5251 35.5822 41.5519 36.3189 41.5519C37.1184 41.5519 37.707 41.467 38.0849 41.2974C38.4627 41.1277 38.8068 40.7189 39.117 40.071H39.444L38.9086 41.9983H32.5356V41.79Z" fill="#004A8B"/>
<path d="M39.7354 41.79C40.2236 41.7379 40.532 41.6337 40.6762 41.4685C40.8204 41.3033 40.8803 40.9208 40.8803 40.3151V35.2789L40.7204 35.0943C40.5989 34.9421 40.4488 34.8175 40.2793 34.7282C40.1031 34.6723 39.9195 34.6462 39.7354 34.6508V34.4365H41.7455L46.2939 39.9073V36.1063C46.2939 35.4843 46.1968 35.0765 46.0084 34.886C45.887 34.7639 45.6044 34.6851 45.1704 34.6508V34.4365H47.9357V34.6508C47.4888 34.6955 47.1905 34.7997 47.0377 34.9693C46.885 35.139 46.815 35.514 46.815 36.1153V42.1367H46.6151L41.4014 35.8682V40.3151C41.4014 40.9402 41.4913 41.348 41.6869 41.54C41.8054 41.6605 42.0824 41.7453 42.5078 41.79V41.9983H39.7354V41.79Z" fill="#004A8B"/>
<path d="M53.3619 39.0593L52.0128 35.9116L50.6523 39.0593H53.3619ZM48.2881 41.9926V41.7842C48.5479 41.7702 48.7922 41.6512 48.9691 41.4524C49.1118 41.2634 49.3788 40.7499 49.7486 39.9076L52.2027 34.2983H52.4339L55.372 40.7782C55.5662 41.2083 55.7261 41.4747 55.8403 41.5774C56.017 41.6982 56.2205 41.7694 56.4313 41.7842V41.9926H53.4333V41.7842C53.6583 41.7741 53.8814 41.7377 54.0986 41.6756C54.1957 41.6324 54.2413 41.5268 54.2413 41.3616C54.2341 41.2603 54.215 41.1603 54.1842 41.0639C54.1424 40.9109 54.089 40.7616 54.0243 40.6175L53.5504 39.5176H50.4552C50.1469 40.2618 49.9656 40.7216 49.907 40.8883C49.8559 41.0163 49.8279 41.153 49.8242 41.2916C49.8177 41.3763 49.8372 41.461 49.8798 41.5335C49.9224 41.606 49.9859 41.6625 50.0612 41.6949C50.2464 41.755 50.4385 41.7885 50.6323 41.7947V42.003L48.2881 41.9926Z" fill="#004A8B"/>
<path d="M59.1143 41.79C59.5954 41.7543 59.9023 41.6873 60.0436 41.5831C60.185 41.4789 60.2564 41.2021 60.2564 40.7616V35.6762C60.2564 35.2551 60.1864 34.9857 60.0436 34.8637C59.9009 34.7416 59.5954 34.6732 59.1143 34.6508V34.4365H62.6006V34.6508C62.118 34.6732 61.8096 34.7416 61.6683 34.8637C61.527 34.9857 61.4556 35.2551 61.4556 35.6762V40.7616C61.4556 41.2081 61.527 41.4774 61.6683 41.5831C61.8096 41.6888 62.118 41.7543 62.6006 41.79V41.9983H59.1143V41.79Z" fill="#004A8B"/>
<path d="M62.9814 41.79C63.4683 41.7379 63.7781 41.6337 63.9151 41.4685C64.0522 41.3033 64.125 40.9208 64.125 40.3151V35.2789L63.9579 35.0943C63.8424 34.9413 63.6963 34.8163 63.5297 34.7282C63.3539 34.6725 63.1708 34.6464 62.9872 34.6508V34.4365H64.9958L69.54 39.9073V36.1063C69.54 35.4843 69.4429 35.0765 69.2545 34.886C69.1303 34.7639 68.8476 34.6851 68.4136 34.6508V34.4365H71.1818V34.6508C70.7292 34.6955 70.4351 34.7997 70.281 34.9693C70.1268 35.139 70.0554 35.514 70.0554 36.1153V42.1367H69.8569L64.6404 35.8682V40.3151C64.6404 40.9402 64.736 41.348 64.9259 41.54C65.0487 41.6605 65.3213 41.7453 65.7511 41.79V41.9983H62.9814V41.79Z" fill="#004A8B"/>
<path d="M71.5861 34.4365H78.2517L78.3145 36.3817H78.029C77.8862 35.77 77.7149 35.3726 77.5008 35.1911C77.2866 35.0095 76.8398 34.9172 76.1588 34.9172H75.5035V40.7661C75.5035 41.2125 75.5749 41.4819 75.7162 41.5876C75.8576 41.6932 76.1674 41.7587 76.6499 41.7944V42.0028H73.2179V41.7944C73.7118 41.7557 74.0245 41.6769 74.1501 41.5548C74.2757 41.4328 74.3328 41.1247 74.3328 40.6306V34.9128H73.6661C73.0137 34.9128 72.5654 35.0035 72.3356 35.1851C72.1057 35.3667 71.9187 35.764 71.8016 36.3757H71.5161L71.5861 34.4365Z" fill="#004A8B"/>
<path d="M78.6885 41.79C79.1168 41.7453 79.4023 41.6694 79.5308 41.5623C79.6593 41.4551 79.7221 41.1902 79.7221 40.7616V35.6762C79.7221 35.2714 79.6593 35.0065 79.5365 34.8815C79.4137 34.7565 79.1239 34.6776 78.6885 34.6508V34.4365H84.9444L84.9815 36.0736H84.6846C84.586 35.5706 84.4333 35.2461 84.2349 35.0973C84.0364 34.9485 83.5938 34.8726 82.9043 34.8726H81.3039C81.1269 34.8726 81.0184 34.9038 80.9798 34.9544C80.9323 35.0454 80.9109 35.1488 80.9184 35.2521V37.8059H82.7358C83.2398 37.8059 83.5624 37.7315 83.6995 37.5886C83.8365 37.4458 83.9479 37.1511 84.0336 36.7091H84.3091V39.3567H84.0336C83.9436 38.9102 83.8294 38.62 83.6909 38.4727C83.5524 38.3253 83.2369 38.2584 82.7358 38.2584H80.9184V41.086C80.9184 41.3137 80.9941 41.4507 81.1412 41.4879C81.2882 41.5251 81.7336 41.5519 82.4689 41.5519C83.2712 41.5519 83.8613 41.467 84.2391 41.2974C84.6203 41.1247 84.9601 40.7155 85.2642 40.0666H85.5925L85.0572 41.9939H78.6885V41.79Z" fill="#004A8B"/>
<path d="M85.8853 41.79C86.3135 41.7453 86.5991 41.6694 86.7318 41.5623C86.8646 41.4551 86.9174 41.1902 86.9174 40.7616V35.6762C86.9174 35.2714 86.8589 35.0065 86.7318 34.8815C86.6048 34.7565 86.3235 34.6776 85.8853 34.6508V34.4365H89.2116V34.6508C88.7834 34.6732 88.485 34.7386 88.3408 34.8547C88.1966 34.9708 88.1181 35.2179 88.1181 35.5988V41.092C88.1124 41.1961 88.1362 41.2996 88.1866 41.3896C88.2252 41.4611 88.3294 41.5072 88.4721 41.5266C88.5669 41.5391 88.6622 41.5465 88.7577 41.5489C88.8533 41.5489 89.036 41.5489 89.3059 41.5489C90.3566 41.5489 91.0633 41.464 91.4345 41.2974C91.8057 41.1307 92.1569 40.7021 92.5023 40.01H92.805L92.2254 41.9983H85.8867L85.8853 41.79Z" fill="#004A8B"/>
<path d="M93.082 41.79C93.5203 41.7453 93.7959 41.6694 93.9243 41.5623C94.0528 41.4551 94.1185 41.1902 94.1185 40.7616V35.6762C94.1185 35.2714 94.0528 35.0065 93.9258 34.8815C93.7987 34.7565 93.5203 34.6776 93.082 34.6508V34.4365H96.4084V34.6508C95.9801 34.6732 95.6818 34.7386 95.5361 34.8547C95.3905 34.9708 95.3149 35.2179 95.3149 35.5988V41.092C95.3092 41.1961 95.333 41.2996 95.3834 41.3896C95.4189 41.4323 95.4627 41.4666 95.512 41.4902C95.5612 41.5138 95.6147 41.5262 95.6689 41.5265C95.7637 41.5391 95.859 41.5465 95.9544 41.5489C96.0501 41.5489 96.24 41.5489 96.4998 41.5489C97.552 41.5489 98.2572 41.464 98.6298 41.2974C99.0024 41.1307 99.3551 40.7021 99.7005 40.01H99.9975L99.4264 41.9909H93.082V41.79Z" fill="#004A8B"/>
<path d="M100.338 41.79C100.817 41.7543 101.129 41.6873 101.269 41.5831C101.409 41.4789 101.48 41.2021 101.48 40.7616V35.6762C101.48 35.2551 101.411 34.9857 101.269 34.8637C101.128 34.7416 100.817 34.6732 100.338 34.6508V34.4365H103.823V34.6508C103.345 34.6732 103.032 34.7416 102.895 34.8637C102.758 34.9857 102.683 35.2551 102.683 35.6762V40.7616C102.683 41.2081 102.748 41.4774 102.895 41.5831C103.042 41.6888 103.345 41.7543 103.823 41.79V41.9983H100.338V41.79Z" fill="#004A8B"/>
<path d="M109.785 34.4858C110.035 34.5658 110.289 34.6284 110.546 34.6733C110.674 34.6856 110.801 34.6508 110.906 34.5751C110.988 34.503 111.051 34.4095 111.087 34.3042H111.347L111.437 36.7077H111.169C110.988 36.2544 110.734 35.8362 110.419 35.471C109.956 34.9947 109.352 34.7561 108.609 34.7551C107.864 34.7492 107.146 35.0485 106.61 35.5886C106.039 36.1472 105.754 37.0644 105.754 38.3403C105.754 39.391 106.039 40.2126 106.61 40.8049C106.886 41.0962 107.216 41.3257 107.58 41.4792C107.944 41.6328 108.334 41.7072 108.726 41.6978C108.894 41.6961 109.061 41.6822 109.227 41.6562C109.413 41.6322 109.596 41.5924 109.775 41.5371C109.961 41.4894 110.138 41.411 110.299 41.3049C110.336 41.2677 110.363 41.2227 110.381 41.1731C110.399 41.1235 110.406 41.0705 110.402 41.0177V39.1946C110.402 38.7481 110.338 38.4773 110.208 38.3686C110.078 38.26 109.785 38.1915 109.357 38.1662V37.9519H112.355V38.1662C112.154 38.1602 111.955 38.2068 111.776 38.3016C111.614 38.4237 111.534 38.6692 111.534 39.0458V41.2915C111.534 41.4285 111.192 41.6085 110.518 41.8303C109.887 42.0471 109.228 42.1605 108.563 42.1666C107.415 42.1666 106.444 41.8397 105.651 41.1859C104.789 40.4685 104.36 39.5056 104.36 38.2972C104.352 37.7912 104.44 37.2886 104.619 36.8183C104.798 36.348 105.065 35.9194 105.404 35.5573C106.165 34.7239 107.177 34.3062 108.439 34.3042C108.894 34.3041 109.346 34.3651 109.785 34.4858Z" fill="#004A8B"/>
<path d="M112.713 41.79C113.142 41.7453 113.427 41.6694 113.556 41.5623C113.684 41.4551 113.75 41.1902 113.75 40.7616V35.6762C113.75 35.2714 113.688 35.0065 113.559 34.8815C113.429 34.7565 113.152 34.6776 112.713 34.6508V34.4365H118.971L119.011 36.0736H118.715C118.615 35.5706 118.465 35.2461 118.268 35.0973C118.071 34.9485 117.62 34.8726 116.931 34.8726H115.327C115.155 34.8726 115.042 34.9038 115.008 34.9544C114.96 35.0453 114.939 35.149 114.949 35.2521V37.8059H116.762C117.268 37.8059 117.586 37.7315 117.724 37.5886C117.863 37.4458 117.974 37.1511 118.06 36.7091H118.335V39.3567H118.066C117.973 38.9102 117.861 38.62 117.723 38.4727C117.584 38.3253 117.27 38.2584 116.768 38.2584H114.955V41.086C114.955 41.3137 115.023 41.4507 115.173 41.4879C115.323 41.5251 115.761 41.5519 116.502 41.5519C117.302 41.5519 117.889 41.467 118.274 41.2974C118.659 41.1277 118.988 40.7155 119.296 40.0666H119.625L119.091 41.9939H112.713V41.79Z" fill="#004A8B"/>
<path d="M119.91 41.79C120.4 41.7379 120.712 41.6337 120.848 41.4685C120.984 41.3033 121.054 40.9208 121.054 40.3151V35.2789L120.897 35.0943C120.776 34.9419 120.626 34.8173 120.457 34.7282C120.28 34.6722 120.095 34.6461 119.91 34.6508V34.4365H121.92L126.466 39.9073V36.1063C126.466 35.4843 126.372 35.0765 126.18 34.886C126.055 34.7639 125.772 34.6851 125.339 34.6508V34.4365H128.109V34.6508C127.656 34.6955 127.36 34.7997 127.21 34.9693C127.06 35.139 126.984 35.514 126.984 36.1153V42.1367H126.784L121.572 35.8682V40.3151C121.572 40.9402 121.665 41.348 121.857 41.54C121.979 41.6605 122.251 41.7453 122.678 41.79V41.9983H119.909L119.91 41.79Z" fill="#004A8B"/>
<path d="M133.961 34.4856C134.209 34.5632 134.461 34.6258 134.716 34.6732C134.827 34.6723 134.937 34.641 135.033 34.5824C135.133 34.5199 135.207 34.4206 135.24 34.3041H135.482L135.591 36.8713H135.32C135.195 36.4215 134.986 36.0017 134.706 35.6361C134.222 35.0497 133.572 34.755 132.751 34.755C132.368 34.7456 131.987 34.8257 131.638 34.9894C131.288 35.1532 130.978 35.3965 130.73 35.7015C130.21 36.3385 129.946 37.2091 129.946 38.3164C129.946 39.3363 130.222 40.1509 130.773 40.7601C131.039 41.0585 131.364 41.2943 131.725 41.4516C132.086 41.6089 132.475 41.6842 132.866 41.6724C133.452 41.6786 134.03 41.5323 134.549 41.2468C134.9 41.0466 135.227 40.8038 135.524 40.5235L135.742 40.7318C135.465 41.0683 135.136 41.3545 134.769 41.5786C134.122 41.9837 133.381 42.1962 132.627 42.1933C131.361 42.1933 130.354 41.7974 129.612 41.0146C129.273 40.6578 129.006 40.2331 128.828 39.7661C128.651 39.299 128.566 38.7993 128.578 38.2971C128.567 37.7762 128.657 37.2582 128.844 36.7751C129.031 36.2919 129.311 35.8536 129.666 35.4872C130.433 34.6925 131.427 34.2966 132.651 34.2966C133.093 34.2991 133.533 34.3601 133.961 34.4782" fill="#004A8B"/>
<path d="M136.281 41.79C136.709 41.7453 136.995 41.6694 137.122 41.5623C137.249 41.4551 137.314 41.1902 137.314 40.7616V35.6762C137.314 35.2714 137.254 35.0065 137.127 34.8815C137 34.7565 136.719 34.6776 136.281 34.6508V34.4365H142.542L142.579 36.0736H142.283C142.184 35.5706 142.031 35.2461 141.834 35.0973C141.637 34.9485 141.19 34.8726 140.501 34.8726H138.893C138.719 34.8726 138.615 34.9038 138.575 34.9544C138.525 35.0444 138.503 35.1485 138.512 35.2521V37.8059H140.337C140.839 37.8059 141.16 37.7315 141.295 37.5886C141.429 37.4458 141.549 37.1511 141.63 36.7091H141.916V39.3567H141.63C141.543 38.9102 141.429 38.62 141.293 38.4727C141.158 38.3253 140.835 38.2584 140.337 38.2584H138.512V41.086C138.512 41.3137 138.588 41.4507 138.736 41.4879C138.885 41.5251 139.324 41.5519 140.064 41.5519C140.863 41.5519 141.454 41.467 141.834 41.2974C142.214 41.1247 142.548 40.7155 142.858 40.0666H143.183L142.649 41.9939H136.281V41.79Z" fill="#004A8B"/>
<path fill-rule="evenodd" clip-rule="evenodd" d="M168 30.4683H0V28.2642H168V30.4683Z" fill="#004A8B"/>
<path d="M107.188 13.9464C107.188 10.1737 110.009 7.11234 113.47 7.11234C116.952 7.11234 119.767 10.1737 119.767 13.9464C119.767 17.7191 116.952 20.77 113.47 20.77C110.011 20.77 107.188 17.7117 107.188 13.9464ZM99.9346 15.1057H105.036C105.515 19.2475 108.498 22.5262 112.294 23.1006V27.0847H114.668V23.1006C118.468 22.5262 121.446 19.2401 121.92 15.1057H126.617V12.5028H121.894C121.313 8.49641 118.371 5.34132 114.671 4.78173V0.513428H112.296V4.77727C108.585 5.34132 105.649 8.4979 105.063 12.5028H99.9346V15.1057Z" fill="#626367"/>
<path d="M0.0883789 23.2703C1.42179 23.1423 2.27409 22.8521 2.65812 22.3997C3.04216 21.9473 3.22918 20.9114 3.22918 19.2744V6.67185C3.22918 5.5507 3.04501 4.81996 2.67668 4.47965C2.31121 4.14182 1.48032 3.94239 0.17832 3.88435V3.30542H6.5156L13.9065 18.7713L21.1189 3.30542H27.5161V3.88286C26.3212 3.96025 25.5531 4.17307 25.2034 4.5109C24.8536 4.84874 24.688 5.56905 24.688 6.67185V20.4709C24.688 21.599 24.8579 22.3253 25.2034 22.6423C25.5488 22.9593 26.3212 23.1751 27.5161 23.2703V23.8522H18.5077V23.2703C19.8069 23.1751 20.6192 22.9459 20.9347 22.5991C21.2502 22.2524 21.4144 21.4189 21.4144 20.1048V6.16882L13.1741 23.8522H12.733L4.63397 6.89806V19.2729C4.63397 20.9695 4.89 22.0753 5.40204 22.5902C5.73896 22.9255 6.48895 23.1523 7.652 23.2703V23.8522H0.0883789V23.2703Z" fill="#004A8B"/>
<path d="M62.9588 12.5088C64.672 11.8301 65.5286 10.5636 65.5286 8.69736C65.5286 6.90252 64.7634 5.67621 63.233 5.0184C62.4163 4.66568 61.3285 4.48858 59.9779 4.48858C59.0685 4.48858 58.5089 4.55257 58.3048 4.67759C58.1006 4.8026 57.9978 5.09876 57.9978 5.56161V13.2053C60.3153 13.1249 61.9709 12.8927 62.9646 12.5088H62.9588ZM51.9718 23.2703C53.209 23.1602 53.9785 22.93 54.2802 22.5798C54.582 22.2295 54.7347 21.4095 54.7385 20.1197V6.67185C54.7385 5.57947 54.5615 4.86511 54.2231 4.52579C53.8848 4.18646 53.131 3.97216 51.9718 3.88286V3.30542H60.8802C62.7361 3.30542 64.2818 3.53263 65.5172 3.98704C67.8528 4.84626 69.0211 6.42579 69.022 8.72563C69.022 10.2704 68.4985 11.4566 67.4516 12.284C66.4047 13.1115 64.9885 13.6572 63.203 13.9211L69.8386 21.7955C70.1823 22.2217 70.5979 22.5788 71.065 22.8491C71.558 23.0918 72.0911 23.2337 72.6354 23.2673V23.8492H67.4545L59.4012 14.2813L57.9878 14.3572V20.4754C57.9878 21.6243 58.1691 22.355 58.5332 22.6616C58.8972 22.9682 59.6753 23.1751 60.8959 23.2703V23.8522H51.9561L51.9718 23.2703Z" fill="#004A8B"/>
<path d="M75.9917 23.2703C77.2452 23.1423 78.0532 22.8521 78.4058 22.3997C78.7585 21.9473 78.9412 20.9114 78.9412 19.2744V6.67185C78.9412 5.55119 78.7656 4.81897 78.423 4.47965C78.0803 4.14033 77.2809 3.94239 76.0674 3.88435V3.30542H82.0449L89.0117 18.7713L95.8073 3.30542H101.831V3.88286C100.707 3.96025 99.9817 4.17307 99.6519 4.5109C99.3221 4.84874 99.1665 5.56905 99.1665 6.67185V20.4709C99.1665 21.599 99.3336 22.3253 99.6519 22.6423C99.9703 22.9593 100.707 23.1751 101.831 23.2703V23.8522H93.3446V23.2703C94.5753 23.1751 95.3333 22.9459 95.6289 22.5991C95.9244 22.2524 96.0786 21.4189 96.0786 20.1048V6.16882L88.3122 23.8492H87.9025L80.2746 6.89806V19.2729C80.2746 20.9695 80.5154 22.0753 80.997 22.5902C81.3139 22.9255 82.0197 23.1523 83.1142 23.2703V23.8522H75.9917V23.2703Z" fill="#004A8B"/>
<path d="M135.228 12.5088C136.839 11.8242 137.643 10.5636 137.643 8.69884C137.643 6.90401 136.922 5.67769 135.481 5.01989C134.71 4.66667 133.688 4.49007 132.415 4.49007C131.558 4.49007 131.032 4.55307 130.836 4.67908C130.646 4.80558 130.55 5.10025 130.55 5.5631V13.2053C132.739 13.1249 134.3 12.8927 135.233 12.5088H135.228ZM124.867 23.2703C126.029 23.1602 126.758 22.931 127.042 22.5798C127.326 22.2285 127.471 21.407 127.471 20.1197V6.67185C127.471 5.57947 127.314 4.86511 126.992 4.52579C126.671 4.18646 125.963 3.97216 124.867 3.88286V3.30542H133.261C135.01 3.30542 136.467 3.53263 137.63 3.98704C139.84 4.84626 140.945 6.42579 140.946 8.72563C140.946 10.2704 140.454 11.4566 139.468 12.284C138.483 13.1115 137.148 13.6572 135.463 13.9211L141.716 21.7955C142.035 22.2182 142.426 22.5755 142.871 22.8491C143.332 23.0913 143.836 23.2335 144.351 23.2673V23.8492H139.466L131.878 14.2813L130.546 14.3572V20.4754C130.546 21.6243 130.716 22.355 131.06 22.6616C131.404 22.9682 132.143 23.1751 133.287 23.2703V23.8522H124.864L124.867 23.2703Z" fill="#004A8B"/>
<path d="M146.298 23.2703C147.48 23.1528 148.25 22.9503 148.601 22.6661C148.952 22.3818 149.128 21.6496 149.128 20.4828V6.67185C149.128 5.57054 148.955 4.85122 148.61 4.51388C148.263 4.17307 147.493 3.96025 146.298 3.88286V3.30542H163.397L163.506 7.74934H162.688C162.416 6.37717 162.009 5.49464 161.461 5.09281C160.913 4.69098 159.702 4.48858 157.816 4.48858H153.435C152.963 4.48858 152.67 4.56002 152.561 4.70735C152.453 4.85469 152.396 5.13151 152.396 5.53631V12.4656H157.363C158.736 12.4656 159.605 12.2662 159.985 11.8703C160.365 11.4744 160.668 10.6797 160.899 9.48911H161.654V16.661H160.894C160.653 15.4585 160.341 14.6623 159.967 14.2709C159.592 13.8794 158.719 13.6904 157.358 13.6904H152.391V21.3758C152.391 21.9949 152.594 22.3565 152.998 22.4696C153.402 22.5827 154.609 22.6334 156.624 22.6334C158.808 22.6334 160.418 22.4042 161.456 21.9458C162.493 21.4874 163.426 20.3722 164.254 18.6002H165.15L163.691 23.8507H146.298V23.2703Z" fill="#004A8B"/>
<path d="M47.0876 19.9664L40.4362 3.00028C40.3993 2.93766 40.3459 2.8874 40.2824 2.85548C40.2188 2.82355 40.1479 2.81131 40.0779 2.8202C39.9391 2.81397 39.8027 2.85875 39.6924 2.9467L39.3212 3.60302L36.7101 8.84762L32.1873 18.5213C31.5763 19.9157 30.7597 21.6213 30.1886 22.224C29.9359 22.4636 29.1622 22.9682 28.3213 23.3462V23.8998L35.992 23.9221L36.0248 23.1616C35.0972 23.1988 34.1831 22.9215 33.4194 22.3714C32.9497 21.7761 32.9911 21.3117 33.0396 20.9962C33.1224 20.4738 33.3537 20.0408 34.3545 17.5137L34.8898 16.4541L37.7451 16.3812C37.7451 16.3812 38.0763 16.5062 39.2627 15.7129C40.1193 15.134 40.1193 14.5908 40.1193 14.5908L35.8135 14.5506C35.8135 14.5506 38.7916 7.69423 39.0143 7.82222C39.2998 7.98444 43.5742 18.8517 43.5742 18.8517C43.8687 19.5428 44.0806 20.269 44.2052 21.0141C44.2994 21.6094 43.9568 22.3788 43.6727 22.6199C43.2273 23.0098 42.6693 23.2325 42.088 23.2524V23.873L50.738 23.9266L50.7252 23.2613C49.8843 23.1438 49.0263 22.7777 48.5538 22.3684C48.0812 21.9591 47.6658 21.3638 47.089 19.9649" fill="#004A8B"/>
</svg>
